<svg width="963" height="145" viewBox="1223 49 963 145" fill="none" xmlns="http://www.w3.org/2000/svg">
<!-- Magalu wordmark - Blue -->
<path d="M1223.89 136.99L1227.7 64.5C1227.82 60.86 1229.71 59.03 1233.42 59.03H1247.42C1250.53 59.03 1252.72 60.38 1254 63.09L1271.64 98.01L1289.63 63.09C1291.01 60.38 1293.2 59.03 1296.2 59.03H1309.17C1312.86 59.03 1314.77 60.85 1314.89 64.5L1318.7 137C1318.92 140.89 1317.14 142.81 1313.33 142.81H1302.94C1299.25 142.81 1297.35 140.99 1297.24 137.34L1294.99 90.95L1280.29 118.46C1279.01 121.17 1276.83 122.52 1273.71 122.52H1268.34C1265.34 122.52 1263.15 121.17 1261.77 118.46L1247.42 91.83L1245.34 137.34C1245.22 140.99 1243.38 142.81 1239.8 142.81H1229.26C1225.57 142.81 1223.79 140.87 1223.89 136.98V136.99Z" fill="#0086FF"/>
<path d="M1341.07 139.11C1335.48 135.35 1331.17 130.11 1328.19 123.4C1325.19 116.7 1323.7 109.12 1323.7 100.65C1323.7 92.18 1325.29 84.48 1328.45 77.9C1331.61 71.32 1336.13 66.17 1341.95 62.46C1347.77 58.75 1354.55 56.9 1362.28 56.9C1373.24 56.9 1382.17 61.02 1389.1 69.25C1389.2 68.66 1389.36 67.79 1389.53 66.61C1389.71 65.43 1389.9 64.44 1390.14 63.62C1390.84 60.57 1392.85 59.04 1396.19 59.04H1405.52C1407.25 59.04 1408.6 59.54 1409.58 60.54C1410.56 61.54 1411.05 62.93 1411.05 64.69V137.16C1411.05 138.92 1410.56 140.32 1409.58 141.31C1408.6 142.31 1407.24 142.81 1405.52 142.81H1396.69C1393.23 142.81 1391.15 141.28 1390.47 138.23C1390.24 137.18 1389.84 134.77 1389.26 130.99C1385.68 135.34 1381.48 138.73 1376.64 141.13C1371.8 143.54 1366.55 144.75 1360.91 144.75C1353.3 144.75 1346.69 142.86 1341.1 139.1H1341.06L1341.07 139.11ZM1381.46 118.31C1385.37 114.42 1387.33 109.25 1387.33 102.78V99.79C1387.33 92.37 1385.43 86.85 1381.63 83.21C1377.82 79.57 1372.93 77.74 1366.93 77.74C1361.28 77.74 1356.62 79.56 1352.93 83.21C1349.24 86.86 1347.39 92.62 1347.39 100.5C1347.39 108.38 1349.14 114.28 1352.67 118.22C1356.18 122.16 1360.71 124.12 1366.26 124.12C1372.48 124.12 1377.55 122.18 1381.49 118.31H1381.47H1381.46Z" fill="#0086FF"/>
<path d="M1437.58 176.25C1431.19 174.43 1425.33 171.4 1420.03 167.16C1418.52 165.98 1417.79 164.58 1417.79 162.93C1417.79 161.63 1418.19 160.4 1419 159.22L1423.49 152.52C1424.77 150.75 1426.15 149.88 1427.63 149.88C1428.78 149.88 1429.99 150.34 1431.27 151.29C1434.84 153.64 1438.59 155.37 1442.51 156.5C1446.42 157.62 1450.87 158.18 1455.83 158.18C1464.02 158.18 1470.27 156.27 1474.61 152.44C1478.93 148.62 1481.1 143.01 1481.1 135.59V129.42C1474.41 136.94 1465.6 140.7 1454.64 140.7C1447.36 140.7 1440.88 138.99 1435.18 135.58C1429.48 132.17 1425.01 127.34 1421.77 121.12C1418.54 114.88 1416.93 107.66 1416.93 99.42C1416.93 91.18 1418.63 83.7 1422.04 77.28C1425.43 70.88 1430.12 65.91 1436.04 62.38C1441.99 58.85 1448.52 57.09 1455.68 57.09C1466.86 57.09 1475.92 61.21 1482.83 69.44C1482.95 68.73 1483.09 67.8 1483.26 66.62C1483.44 65.44 1483.63 64.45 1483.87 63.63C1484.57 60.58 1486.63 59.05 1490.09 59.05H1499.08C1500.81 59.05 1502.18 59.55 1503.15 60.55C1504.13 61.55 1504.62 62.94 1504.62 64.7V134.69C1504.62 143.03 1502.75 150.57 1498.99 157.26C1495.25 163.96 1489.92 169.26 1482.99 173.14C1476.07 177.03 1468.06 178.95 1458.95 178.95C1451.1 178.95 1443.99 178.04 1437.59 176.22V176.24L1437.58 176.25ZM1475.12 115.74C1479.11 112.03 1481.08 106.95 1481.08 100.48V99.07C1481.08 91.9 1479.09 86.52 1475.12 82.94C1471.13 79.36 1466.2 77.56 1460.33 77.56C1454.46 77.56 1449.98 79.32 1446.24 82.85C1442.5 86.38 1440.61 91.78 1440.61 99.07C1440.61 106.36 1442.4 111.75 1445.98 115.56C1449.55 119.38 1454.11 121.3 1459.65 121.3C1466 121.3 1471.16 119.45 1475.12 115.74Z" fill="#0086FF"/>
<path d="M1527.88 139.11C1522.28 135.35 1517.98 130.11 1515 123.4C1511.99 116.7 1510.5 109.12 1510.5 100.65C1510.5 92.18 1512.09 84.48 1515.26 77.9C1518.42 71.32 1522.93 66.17 1528.75 62.46C1534.57 58.75 1541.36 56.9 1549.08 56.9C1560.04 56.9 1568.97 61.02 1575.9 69.25C1576.01 68.66 1576.16 67.79 1576.34 66.61C1576.52 65.43 1576.71 64.44 1576.95 63.62C1577.65 60.57 1579.66 59.04 1583 59.04H1592.33C1594.06 59.04 1595.4 59.54 1596.4 60.54C1597.38 61.54 1597.87 62.93 1597.87 64.69V137.16C1597.87 138.92 1597.38 140.32 1596.4 141.31C1595.42 142.31 1594.06 142.81 1592.33 142.81H1583.5C1580.04 142.81 1577.96 141.28 1577.27 138.23C1577.05 137.18 1576.64 134.77 1576.07 130.99C1572.48 135.34 1568.29 138.73 1563.45 141.13C1558.61 143.54 1553.36 144.75 1547.72 144.75C1540.12 144.75 1533.51 142.86 1527.91 139.1H1527.88V139.11ZM1568.26 118.31C1572.18 114.42 1574.14 109.25 1574.14 102.78V99.79C1574.14 92.37 1572.23 86.85 1568.42 83.21C1564.61 79.57 1559.71 77.74 1553.72 77.74C1548.07 77.74 1543.39 79.56 1539.7 83.21C1536.01 86.86 1534.16 92.62 1534.16 100.5C1534.16 108.38 1535.91 114.28 1539.44 118.22C1542.95 122.16 1547.48 124.12 1553.03 124.12C1559.25 124.12 1564.32 122.18 1568.26 118.31Z" fill="#0086FF"/>
<path d="M1614.54 133.46C1609.3 127.24 1606.68 117.34 1606.68 103.83V64.68C1606.68 62.92 1607.17 61.54 1608.14 60.53C1609.12 59.53 1610.48 59.03 1612.21 59.03H1624.49C1626.22 59.03 1627.58 59.53 1628.56 60.53C1629.54 61.53 1630.02 62.92 1630.02 64.68V107.18C1630.02 116.11 1634.11 120.59 1642.3 120.59H1663.57C1665.3 120.59 1666.67 121.09 1667.64 122.09C1668.62 123.09 1669.11 124.48 1669.11 126.24V137.17C1669.11 138.93 1668.62 140.33 1667.64 141.32C1666.66 142.31 1665.3 142.82 1663.57 142.82H1639.36C1628.05 142.82 1619.78 139.7 1614.54 133.48V133.46Z" fill="#0086FF"/>
<path d="M1678.44 134.87C1672.9 128.29 1670.14 118.7 1670.14 106.11V64.68C1670.14 62.92 1670.63 61.54 1671.6 60.53C1672.58 59.53 1673.95 59.03 1675.67 59.03H1688.29C1690.02 59.03 1691.37 59.53 1692.35 60.53C1693.33 61.53 1693.81 62.92 1693.81 64.68V107.02C1693.81 112.67 1695.02 116.93 1697.45 119.8C1699.88 122.69 1703.32 124.11 1707.83 124.11C1713.83 124.11 1718.53 121.99 1721.92 117.76C1725.33 113.53 1727.03 107.3 1727.03 99.06V64.67C1727.03 62.91 1727.52 61.53 1728.5 60.52C1729.48 59.52 1730.84 59.02 1732.57 59.02H1745.19C1746.92 59.02 1748.26 59.52 1749.24 60.52C1750.22 61.52 1750.71 62.91 1750.71 64.67V137.16C1750.71 138.92 1750.22 140.32 1749.24 141.31C1748.26 142.31 1746.91 142.81 1745.19 142.81H1736.19C1732.85 142.81 1730.77 141.28 1729.97 138.23C1729.52 136.11 1729.16 133.88 1728.92 131.53C1722 140.35 1713.07 144.76 1702.12 144.76C1691.86 144.76 1683.95 141.46 1678.41 134.88L1678.43 134.86L1678.44 134.87Z" fill="#0086FF"/>
<!-- Cloud wordmark - White -->
<path d="M1791.61 140.36C1785.07 136.64 1780.04 131.38 1776.5 124.61C1772.96 117.83 1771.19 109.93 1771.19 100.89C1771.19 92.71 1772.93 85.23 1776.41 78.45C1779.89 71.67 1784.93 66.3 1791.52 62.33C1798.11 58.36 1805.93 56.38 1814.97 56.38C1822.17 56.38 1828.49 57.76 1833.93 60.5C1839.36 63.25 1843.79 67.37 1847.21 72.87L1837.5 80.75C1832.12 73.42 1824.55 69.76 1814.78 69.76C1805.01 69.76 1798.41 72.75 1793.53 78.74C1788.64 84.73 1786.2 92.11 1786.2 100.91C1786.2 109.71 1788.73 117.64 1793.8 123.63C1798.87 129.62 1805.8 132.61 1814.59 132.61C1819.84 132.61 1824.45 131.6 1828.42 129.59C1832.39 127.57 1835.66 124.8 1838.22 121.25L1847.75 128.94C1844.45 134.56 1839.96 138.8 1834.28 141.67C1828.6 144.54 1822.1 145.97 1814.77 145.97C1805.85 145.97 1798.13 144.11 1791.6 140.38L1791.61 140.36Z" fill="white"/>
<path d="M1867.18 136.06C1862.17 130.81 1859.67 123.18 1859.67 113.16V58.39H1874.51V112.98C1874.51 118.84 1875.91 123.21 1878.72 126.08C1881.53 128.95 1885.8 130.38 1891.54 130.38H1920.67V143.94H1889.34C1879.57 143.94 1872.18 141.32 1867.17 136.06H1867.18Z" fill="white"/>
<path d="M1942.38 140.27C1935.72 136.49 1930.56 131.2 1926.9 124.43C1923.24 117.65 1921.4 109.93 1921.4 101.25C1921.4 92.57 1923.26 85.38 1926.99 78.54C1930.71 71.7 1935.9 66.3 1942.56 62.33C1949.22 58.36 1956.76 56.38 1965.18 56.38C1973.6 56.38 1981.3 58.31 1987.9 62.15C1994.5 66 1999.59 71.31 2003.2 78.09C2006.8 84.87 2008.6 92.6 2008.6 101.26C2008.6 109.92 2006.74 117.11 2003.01 123.89C1999.28 130.67 1994.13 136.04 1987.53 140.01C1980.93 143.98 1973.48 145.96 1965.18 145.96C1956.88 145.96 1949.03 144.07 1942.37 140.28L1942.38 140.27ZM1985.7 123.69C1990.83 117.77 1993.39 110.29 1993.39 101.25C1993.39 92.21 1990.82 84.7 1985.7 78.72C1980.57 72.74 1973.73 69.74 1965.18 69.74C1956.63 69.74 1949.58 72.73 1944.39 78.72C1939.2 84.71 1936.6 92.22 1936.6 101.25C1936.6 110.28 1939.19 117.77 1944.39 123.69C1949.58 129.62 1956.51 132.57 1965.18 132.57C1973.85 132.57 1980.57 129.61 1985.7 123.69Z" fill="white"/>
<path d="M2028.38 134.78C2022.03 127.33 2018.85 116.95 2018.85 103.64V58.39H2033.69V103.82C2033.69 112.49 2035.37 119.46 2038.73 124.7C2042.09 129.95 2048.16 132.58 2056.96 132.58C2065.76 132.58 2071.68 130.11 2075.1 125.16C2078.52 120.21 2080.23 113.1 2080.23 103.82V58.39H2095.07V103.64C2095.07 116.59 2091.77 126.88 2085.18 134.51C2078.58 142.14 2069.18 145.96 2056.97 145.96C2044.76 145.96 2034.74 142.24 2028.39 134.79L2028.38 134.78Z" fill="white"/>
<path d="M2108.29 58.38H2140.35C2149.87 58.38 2158.12 60.18 2165.08 63.78C2172.04 67.39 2177.35 72.39 2181.02 78.8C2184.68 85.21 2186.52 92.57 2186.52 100.87C2186.52 109.17 2184.6 116.6 2180.75 123.13C2176.9 129.66 2171.5 134.76 2164.54 138.43C2157.58 142.09 2149.52 143.93 2140.36 143.93H2108.3V58.38H2108.29ZM2140.34 130.56C2150.11 130.56 2157.71 127.94 2163.15 122.68C2168.58 117.43 2171.3 110.16 2171.3 100.88C2171.3 91.6 2168.61 84.73 2163.24 79.54C2157.86 74.35 2150.23 71.75 2140.34 71.75H2122.94V130.56H2140.34Z" fill="white"/>
</svg>
